<?xml version="1.0" standalone="no"?><!DOCTYPE svg PUBLIC "-//W3C//DTD SVG 1.1//EN" "http://www.w3.org/Graphics/SVG/1.1/DTD/svg11.dtd"><svg t="1710859839710" class="icon" viewBox="0 0 1024 1024" version="1.1" xmlns="http://www.w3.org/2000/svg" p-id="21927" width="40" height="40" xmlns:xlink="http://www.w3.org/1999/xlink"><path d="M515.792593 83.247407a291.84 291.84 0 0 1 289.754074 293.546667c0 75.851852-46.459259 192.474074-121.552593 305.114074-79.454815 119.466667-148.859259 170.666667-168.201481 170.666667s-88.746667-51.2-168.201482-170.666667c-75.851852-112.64-121.552593-229.451852-121.552592-305.114074A291.84 291.84 0 0 1 515.792593 83.247407m0-51.579259a343.22963 343.22963 0 0 0-341.333334 345.125926c0 190.767407 236.088889 527.17037 341.333334 527.17037s341.333333-336.402963 341.333333-527.17037a343.22963 343.22963 0 0 0-341.333333-345.125926z" fill="#1E4F23" p-id="21928"></path><path d="M519.205926 565.665185a163.84 163.84 0 1 1 162.322963-163.65037 163.081481 163.081481 0 0 1-162.322963 163.65037z m0-276.100741a112.45037 112.45037 0 1 0 110.743704 112.450371 111.691852 111.691852 0 0 0-110.743704-112.450371z" fill="#1E4F23" p-id="21929"></path><path d="M513.896296 986.074074c-237.226667 0-489.244444-64.474074-489.244444-183.751111 0-36.219259 24.082963-88.177778 138.808889-131.034074a24.651852 24.651852 0 0 1 17.066666 46.26963C113.777778 742.4 73.955556 774.068148 73.955556 802.322963c0 63.336296 188.112593 134.447407 439.94074 134.447407s439.940741-71.111111 439.940741-134.447407c0-28.065185-39.632593-59.733333-106.002963-84.574815a24.651852 24.651852 0 0 1 17.256296-46.08c113.777778 42.666667 138.05037 94.814815 138.050371 130.654815C1003.140741 921.6 751.122963 986.074074 513.896296 986.074074z" fill="#1E4F23" p-id="21930"></path></svg>
