<?xml version="1.0" standalone="no"?><!DOCTYPE svg PUBLIC "-//W3C//DTD SVG 1.1//EN" "http://www.w3.org/Graphics/SVG/1.1/DTD/svg11.dtd"><svg t="1710855817194" class="icon" viewBox="0 0 1024 1024" version="1.1" xmlns="http://www.w3.org/2000/svg" p-id="12076" xmlns:xlink="http://www.w3.org/1999/xlink" width="28" height="28"><path d="M820.560076 66.952878 203.442994 66.952878c-56.70856 0-102.854553 46.145993-102.854553 102.853529l0 685.685761c0 56.703443 46.145993 102.854553 102.854553 102.854553l617.118106 0c56.703443 0 102.849436-46.15111 102.849436-102.854553L923.410536 169.806407C923.409512 113.098871 877.263519 66.952878 820.560076 66.952878zM854.841857 855.492168c0 18.921955-15.359826 34.279734-34.281781 34.279734L203.442994 889.771903c-18.890232 0-34.286897-15.357779-34.286897-34.279734L169.156096 169.806407c0-18.890232 15.396665-34.286897 34.286897-34.286897l617.118106 0c18.921955 0 34.281781 15.395642 34.281781 34.286897L854.842881 855.492168z" fill="#1E4F23" p-id="12077"></path><path d="M650.201084 547.856649 271.769149 547.856649c-18.921955 0-34.280758-15.359826-34.280758-34.280758 0-18.928095 15.358803-34.286897 34.280758-34.286897l378.431935 0c18.958794 0 34.281781 15.358803 34.281781 34.286897C684.482865 532.496823 669.159878 547.856649 650.201084 547.856649L650.201084 547.856649z" fill="#1E4F23" p-id="12078"></path><path d="M750.789013 752.125963 271.633049 752.125963c-18.927071 0-34.286897-15.328104-34.286897-34.286897 0-18.959817 15.359826-34.286897 34.286897-34.286897l479.155964 0c18.958794 0 34.286897 15.32708 34.286897 34.286897C785.075911 736.797859 769.74883 752.125963 750.789013 752.125963L750.789013 752.125963z" fill="#1E4F23" p-id="12079"></path><path d="M325.208245 254.877945c-9.521864-9.519818-22.903639-15.066137-36.363186-15.066137-13.465686 0-26.847461 5.54632-36.363186 15.066137-9.521864 9.516748-15.06716 22.898523-15.06716 36.364209 0 13.465686 5.54018 26.847461 15.062044 36.363186 9.520841 9.520841 22.902616 15.06716 36.363186 15.06716 13.464663 0 26.846438-5.54632 36.363186-15.06716 9.520841-9.515724 15.066137-22.897499 15.066137-36.363186C340.269265 277.776468 334.728062 264.394692 325.208245 254.877945z" fill="#1E4F23" p-id="12080"></path><path d="M547.611567 254.877945c-9.521864-9.519818-22.902616-15.066137-36.363186-15.066137-13.464663 0-26.846438 5.54632-36.362162 15.066137-9.521864 9.516748-15.06716 22.898523-15.06716 36.364209 0 13.465686 5.54018 26.847461 15.061021 36.363186 9.521864 9.520841 22.903639 15.06716 36.363186 15.06716 13.465686 0 26.846438-5.54632 36.363186-15.06716 9.520841-9.515724 15.066137-22.897499 15.066137-36.363186C562.671565 277.776468 557.132408 264.394692 547.611567 254.877945z" fill="#1E4F23" p-id="12081"></path><path d="M770.015913 254.877945c-9.521864-9.519818-22.903639-15.066137-36.363186-15.066137-13.465686 0-26.847461 5.54632-36.363186 15.066137-9.521864 9.516748-15.06716 22.898523-15.06716 36.364209 0 13.465686 5.54018 26.847461 15.062044 36.363186 9.520841 9.520841 22.902616 15.06716 36.362162 15.06716 13.465686 0 26.847461-5.54632 36.363186-15.06716 9.521864-9.515724 15.06716-22.897499 15.06716-36.363186C785.075911 277.776468 779.535731 264.394692 770.015913 254.877945z" fill="#1E4F23" p-id="12082"></path></svg>
