<?xml version="1.0" standalone="no"?><!DOCTYPE svg PUBLIC "-//W3C//DTD SVG 1.1//EN" "http://www.w3.org/Graphics/SVG/1.1/DTD/svg11.dtd"><svg t="1710859632649" class="icon" viewBox="0 0 1024 1024" version="1.1" xmlns="http://www.w3.org/2000/svg" p-id="16498" width="40" height="40" xmlns:xlink="http://www.w3.org/1999/xlink"><path d="M488.727273 551.726545V558.545455h34.909091v23.272727H488.727273v46.545454h-23.272728v-46.545454h-34.90909v-23.272727H465.454545v-23.272728h-34.90909v-23.272727h18.455272L418.909091 481.908364l16.453818-16.453819 41.728 41.728L518.818909 465.454545l16.453818 16.453819L505.181091 512h18.455273v23.272727H488.727273v16.453818zM744.727273 349.090909H349.090909v23.272727h-23.272727v-46.545454h442.181818v302.545454h-46.545455v-23.272727h23.272728V349.090909zM512 0l442.181818 256v512L512 1024 69.818182 768V256L512 0z m0 28.276364L93.090909 270.149818v483.700364l418.909091 241.873454 418.909091-241.873454V270.149818L512 28.276364zM256 395.636364h442.181818v302.545454H256V395.636364z m23.272727 23.272727v256h395.636364V418.909091H279.272727z m279.272728 116.363636h69.818181v23.272728h-69.818181v-23.272728z m-232.727273 0h69.818182v23.272728h-69.818182v-23.272728z m0-46.545454h46.545454v23.272727h-46.545454v-23.272727z m0 93.090909h46.545454v23.272727h-46.545454v-23.272727z m256-93.090909h46.545454v23.272727h-46.545454v-23.272727z m0 93.090909h46.545454v23.272727h-46.545454v-23.272727z" p-id="16499" fill="#FF75A3"></path></svg>