<?xml version="1.0" standalone="no"?><!DOCTYPE svg PUBLIC "-//W3C//DTD SVG 1.1//EN" "http://www.w3.org/Graphics/SVG/1.1/DTD/svg11.dtd"><svg t="1710855578702" class="icon" viewBox="0 0 1024 1024" version="1.1" xmlns="http://www.w3.org/2000/svg" p-id="5388" xmlns:xlink="http://www.w3.org/1999/xlink" width="28" height="28"><path d="M1012.928 454.112l-143.52-197.888c-10.656-14.688-27.84-23.456-45.984-23.456L616.64 232.768l0-39.36c0-42.432-34.496-76.96-76.928-76.96L77.216 116.448c-42.432 0-76.928 34.528-76.928 76.96l0 546.912c0 42.432 34.528 76.928 76.928 76.928l71.392 0c0.8 72.288 59.712 130.848 132.16 130.848 72.96 0 132.32-59.328 132.32-132.32 0-2.336-0.576-4.544-0.704-6.848 2.752 4.896 7.776 8.32 13.76 8.32l174.464 0 16 0 55.392 0c0.8 72.288 59.712 130.848 132.16 130.848s131.36-58.56 132.16-130.848l23.36 0c35.296 0 64-28.704 64-64l0-265.824C1023.744 475.424 1020 463.904 1012.928 454.112zM843.52 275.008l127.552 175.872-221.216 0c-9.312 0-16.896-7.584-16.896-16.896L732.96 264.768l90.464 0C831.328 264.768 838.848 268.608 843.52 275.008zM280.768 916.096c-55.328 0-100.32-44.992-100.32-100.32s44.992-100.32 100.32-100.32 100.32 44.992 100.32 100.32S336.096 916.096 280.768 916.096zM804.192 916.096c-55.328 0-100.32-44.992-100.32-100.32s44.992-100.32 100.32-100.32 100.32 44.992 100.32 100.32S859.52 916.096 804.192 916.096zM991.744 753.248c0 17.664-14.336 32-32 32l-27.136 0c-13.856-58.24-65.984-101.792-128.416-101.792s-114.528 43.552-128.416 101.792L616.64 785.248l0-100.32c0-8.832-7.168-16-16-16s-16 7.168-16 16l0 100.32-158.464 0c-7.136 0-12.96 4.736-15.04 11.2-9.44-63.744-64.032-112.992-130.368-112.992-62.4 0-114.528 43.552-128.416 101.792L77.216 785.248c-24.768 0-44.928-20.16-44.928-44.928L32.288 193.408c0-24.768 20.16-44.96 44.928-44.96l462.464 0c24.768 0 44.928 20.16 44.928 44.96l0 258.912c0 8.832 7.168 16 16 16s16-7.168 16-16L616.608 264.768l84.32 0 0 169.216c0 26.944 21.952 48.896 48.896 48.896l241.152 0c0.288 1.504 0.736 3.008 0.736 4.576L991.712 753.248z" fill="#1E4F23" p-id="5389"></path></svg>
