<?xml version="1.0" standalone="no"?><!DOCTYPE svg PUBLIC "-//W3C//DTD SVG 1.1//EN" "http://www.w3.org/Graphics/SVG/1.1/DTD/svg11.dtd"><svg t="1710688255747" class="icon" viewBox="0 0 1024 1024" version="1.1" xmlns="http://www.w3.org/2000/svg" p-id="8642" width="28" height="28" xmlns:xlink="http://www.w3.org/1999/xlink"><path d="M513.792 84.7872c-232.0896 0-420.864 188.8256-420.864 420.864 0 232.0896 188.8256 420.864 420.864 420.864 232.0896 0 420.864-188.8256 420.864-420.864s-188.7744-420.864-420.864-420.864z m0 800.8192c-209.5104 0-379.904-170.4448-379.904-379.904 0-209.5104 170.4448-379.904 379.904-379.904 209.5104 0 379.904 170.4448 379.904 379.904 0 209.4592-170.4448 379.904-379.904 379.904z" fill="#FC4674" p-id="8643"></path><path d="M514.6112 244.8896c-63.232 1.792-116.3776 23.808-158.6176 70.2464-41.6256 45.7728-59.2384 99.84-55.3472 161.28 3.0208 47.4112 19.4048 90.5728 43.52 130.8672 35.072 58.5728 81.4592 106.3424 134.656 147.456 9.8304 7.5776 21.9136 11.7248 34.3552 11.7248 12.288 0 24.1664-3.9936 33.9456-11.4176 8.6016-6.5536 17.152-13.1584 25.4464-20.0704 36.5568-30.464 68.7616-64.9728 95.744-104.2944 35.4304-51.5584 58.88-107.6224 59.0848-172.3392 0.1536-46.7968-15.7184-92.5184-44.4416-129.4848-42.4448-54.8352-99.6352-81.92-168.3456-83.968z m-0.1024 294.6048c-43.4176 0.9728-79.9744-34.7136-81.3568-79.4112-1.3312-43.52 34.9696-80.7424 79.7184-81.7152 43.6736-0.9728 80.7936 35.584 81.3568 80.0768 0.6144 43.7248-35.1744 80.0768-79.7184 81.0496z" fill="#FC4674" p-id="8644"></path></svg>