<?xml version="1.0" standalone="no"?><!DOCTYPE svg PUBLIC "-//W3C//DTD SVG 1.1//EN" "http://www.w3.org/Graphics/SVG/1.1/DTD/svg11.dtd"><svg t="1710927919860" class="icon" viewBox="0 0 1024 1024" version="1.1" xmlns="http://www.w3.org/2000/svg" p-id="49786" xmlns:xlink="http://www.w3.org/1999/xlink" width="32" height="32"><path d="M769.6448 280.5632H280.3616a40.32 40.32 0 0 0-40.32 40.32v325.9872a40.32 40.32 0 0 0 40.32 40.32h180.0288l64.7136 64.512 64.512-64.512h180.0288a40.32 40.32 0 0 0 40.32-40.32V321.6896a40.32 40.32 0 0 0-40.32-41.1264zM362.0096 525.104a40.32 40.32 0 1 1 40.32-40.32 40.32 40.32 0 0 1-40.32 40.32z m163.0944 0a40.32 40.32 0 1 1 40.32-40.32 40.32 40.32 0 0 1-40.32 40.32z m162.8928 0a40.32 40.32 0 1 1 40.32-40.32 40.32 40.32 0 0 1-40.32 40.32z" p-id="49787" fill="#F8D73A"></path><path d="M512 8a504 504 0 1 0 504 504A504 504 0 0 0 512 8z m338.8896 638.8704a81.648 81.648 0 0 1-80.64 81.8496h-163.6992l-52.6176 52.6176-28.8288 28.8288-80.64-80.64h-163.296a81.648 81.648 0 0 1-80.64-81.8496V321.6896a81.648 81.648 0 0 1 80.64-81.8496h488.4768a80.64 80.64 0 0 1 80.64 81.8496z" p-id="49788" fill="#F8D73A"></path></svg>