<?xml version="1.0" standalone="no"?><!DOCTYPE svg PUBLIC "-//W3C//DTD SVG 1.1//EN" "http://www.w3.org/Graphics/SVG/1.1/DTD/svg11.dtd"><svg t="1710927221098" class="icon" viewBox="0 0 1024 1024" version="1.1" xmlns="http://www.w3.org/2000/svg" p-id="21835" width="32" height="32" xmlns:xlink="http://www.w3.org/1999/xlink"><path d="M512.002 65.742c-246.465 0-446.26 199.8-446.26 446.258 0 246.463 199.797 446.258 446.26 446.258 246.46 0 446.255-199.795 446.255-446.258 0-246.458-199.795-446.258-446.255-446.258zM354.833 690.375c0 18.261-14.805 33.067-33.067 33.067S288.7 708.635 288.7 690.375V490.282c0-18.265 14.805-33.062 33.066-33.062 18.263 0 33.067 14.797 33.067 33.062v200.093z m375.01-163.677c-5.244 19.12-0.815 18.318-12.517 46.006-4.091 9.677 1.955 45.619-27.4 75.352-6.312 6.39 1.21 38.834-24.686 62.942-5.52 5.138-6.955 14.82-18.267 21.122-21.164 11.786-36.285 11.063-63.133 11.063-51.626 0-154.375-17.028-183.506-38.013a20.353 20.353 0 0 1-8.455-16.514V492.625c0-6.178 5.132-13.83 9.895-17.783 6.952-5.767 14.964-13.132 52.997-40.343 44.15-31.592 44.599-37.54 62.797-67.176 0 0 22.404-53.945 23.6-57.279 16.65-46.527 72.073-34.309 78.21 13.985 3.617 28.45-7.17 52.495-13.89 76.976-6.216 22.638-10.659 35.016-12.465 48.224 23.539-2.091 68.25-9.9 81.732-9.022 45.61 2.965 72.786 21.98 55.088 86.49z" fill="#FFAD7B" p-id="21836"></path></svg>